<?xml version="1.0" standalone="no"?>
<!DOCTYPE svg PUBLIC "-//W3C//DTD SVG 20010904//EN"
 "http://www.w3.org/TR/2001/REC-SVG-20010904/DTD/svg10.dtd">
<svg version="1.0" xmlns="http://www.w3.org/2000/svg"
 width="396.000000pt" height="341.000000pt" viewBox="0 0 396.000000 341.000000"
 preserveAspectRatio="xMidYMid meet">

<g transform="translate(0.000000,341.000000) scale(0.100000,-0.100000)"
fill="#000000" stroke="none">
<path d="M1523 3165 c-235 -79 -430 -201 -608 -380 -226 -227 -359 -471 -427
-788 -18 -84 -22 -136 -22 -292 0 -118 4 -215 13 -255 25 -130 33 -161 37
-157 2 2 -2 37 -11 76 -70 332 -17 702 144 1008 74 139 152 243 276 368 196
197 424 326 718 406 27 7 37 15 37 29 0 29 -37 26 -157 -15z"/>
<path d="M2675 2843 c6 -5 41 -31 79 -57 290 -199 489 -517 551 -880 19 -115
19 -329 0 -442 -31 -173 -103 -353 -208 -517 -35 -55 -47 -81 -39 -89 15 -15
30 -2 77 71 86 134 144 271 186 441 20 82 23 121 24 285 0 205 -11 284 -62
440 -85 260 -240 481 -458 649 -72 56 -175 124 -150 99z"/>
<path d="M1993 2833 c9 -2 23 -2 30 0 6 3 -1 5 -18 5 -16 0 -22 -2 -12 -5z"/>
<path d="M2123 2823 c9 -2 23 -2 30 0 6 3 -1 5 -18 5 -16 0 -22 -2 -12 -5z"/>
<path d="M2188 2813 c6 -2 18 -2 25 0 6 3 1 5 -13 5 -14 0 -19 -2 -12 -5z"/>
<path d="M2308 2785 c94 -28 239 -99 325 -157 129 -88 269 -244 353 -394 72
-129 134 -347 134 -473 0 -60 9 -91 26 -91 19 0 18 59 -1 180 -42 258 -148
466 -329 646 -155 155 -384 283 -551 308 -22 4 -3 -5 43 -19z"/>
<path d="M1865 2632 c-23 -4 25 -7 115 -8 124 -1 170 -5 232 -22 179 -49 314
-127 445 -259 46 -46 85 -83 88 -83 37 0 -95 142 -196 211 -84 56 -207 113
-304 139 -85 22 -302 35 -380 22z"/>
<path d="M1712 2595 c-41 -13 -77 -27 -80 -30 -4 -4 4 -4 18 1 14 4 59 18 100
30 41 13 66 23 55 23 -11 0 -53 -11 -93 -24z"/>
<path d="M1568 2539 c-21 -11 -38 -22 -38 -24 0 -5 79 32 89 41 12 11 -18 1
-51 -17z"/>
<path d="M836 2408 c-153 -246 -224 -547 -197 -828 36 -356 167 -629 422 -876
77 -74 198 -164 259 -193 21 -10 22 -9 6 1 -192 131 -293 223 -400 365 -173
230 -259 497 -260 798 0 268 61 480 209 718 25 39 45 75 45 79 0 5 -9 8 -19 8
-13 0 -34 -23 -65 -72z"/>
<path d="M3400 2275 c0 -5 5 -17 10 -25 5 -8 10 -10 10 -5 0 6 -5 17 -10 25
-5 8 -10 11 -10 5z"/>
<path d="M3451 2130 c0 -8 4 -24 9 -35 5 -13 9 -14 9 -5 0 8 -4 24 -9 35 -5
13 -9 14 -9 5z"/>
<path d="M1805 2095 c-74 -29 -115 -85 -115 -158 0 -72 29 -103 161 -172 169
-88 187 -101 200 -144 24 -79 -35 -142 -148 -157 -93 -12 -172 56 -189 164 -4
26 -12 42 -20 42 -11 0 -14 -23 -14 -110 0 -73 4 -110 11 -110 6 0 13 8 16 18
4 17 8 17 75 -6 91 -30 189 -32 244 -4 82 42 114 89 114 165 0 81 -74 154
-207 203 -165 61 -211 169 -103 242 30 20 44 23 97 20 70 -4 103 -23 141 -78
12 -18 22 -46 22 -61 0 -19 5 -29 15 -29 12 0 15 17 15 90 0 50 -2 90 -5 90
-3 0 -14 -5 -24 -12 -15 -9 -26 -9 -48 1 -43 20 -190 24 -238 6z"/>
<path d="M3470 2068 c0 -3 8 -41 17 -84 25 -113 25 -453 0 -577 -108 -532
-481 -963 -989 -1142 -68 -24 -78 -31 -78 -51 0 -33 14 -31 139 19 461 185
809 587 925 1066 52 213 57 450 16 662 -11 56 -22 104 -25 107 -3 3 -5 3 -5 0z"/>
<path d="M845 1493 c21 -142 95 -324 185 -459 67 -99 212 -244 309 -308 140
-91 326 -165 456 -180 l50 -5 -45 10 c-253 58 -449 166 -618 339 -153 157
-258 363 -302 593 -8 40 -16 57 -27 57 -13 0 -14 -8 -8 -47z"/>
<path d="M521 1264 c0 -11 3 -14 6 -6 3 7 2 16 -1 19 -3 4 -6 -2 -5 -13z"/>
<path d="M1392 938 c7 -24 142 -107 223 -139 146 -57 218 -71 360 -71 72 0
150 4 173 8 31 7 -7 9 -135 9 -145 0 -190 4 -243 19 -88 25 -237 96 -308 145
-61 43 -76 49 -70 29z"/>
<path d="M2522 896 c-46 -33 -53 -43 -14 -20 19 10 38 25 44 32 15 17 8 14
-30 -12z"/>
<path d="M2410 830 c-9 -6 -10 -10 -3 -10 6 0 15 5 18 10 8 12 4 12 -15 0z"/>
<path d="M2208 753 c7 -3 16 -2 19 1 4 3 -2 6 -13 5 -11 0 -14 -3 -6 -6z"/>
<path d="M1868 533 c12 -2 32 -2 45 0 12 2 2 4 -23 4 -25 0 -35 -2 -22 -4z"/>
<path d="M2058 533 c12 -2 32 -2 45 0 12 2 2 4 -23 4 -25 0 -35 -2 -22 -4z"/>
</g>
</svg>
